<svg width="427" height="740" viewBox="0 0 427 740" fill="none" xmlns="http://www.w3.org/2000/svg">
<path d="M282.655 526.035L381.655 465.802L381.655 554.928L282.655 615.918L282.655 526.035Z" fill="white"/>
<path d="M6.77147e-06 680.261L83.4706 740L182 680.261L182 587L83.4706 646.739L4.13656e-05 587L6.77147e-06 680.261Z" fill="white"/>
<path d="M1.3236e-05 218.09L83.3612 278L382 90.0807L382 3.05176e-05L83.3612 184.471L4.78418e-05 124.561L1.3236e-05 218.09Z" fill="white"/>
<path d="M275.346 458.81L275.345 622.116L190.359 675.465L192.94 398.395L275.346 458.81Z" fill="white"/>
<path d="M193 388.166L194 216.534L275 166L275 448L193 388.166Z" fill="white"/>
</svg>
