<svg width="2674" height="789" viewBox="0 0 2674 789" fill="none" xmlns="http://www.w3.org/2000/svg">
<path d="M282.655 575.035L381.655 514.802L381.655 603.928L282.655 664.918L282.655 575.035Z" fill="#240A2D"/>
<path d="M6.77147e-06 729.261L83.4706 789L182 729.261L182 636L83.4706 695.739L4.13656e-05 636L6.77147e-06 729.261Z" fill="#240A2D"/>
<path d="M1.3236e-05 267.09L83.3612 327L382 139.081L382 49L83.3612 233.471L4.78418e-05 173.561L1.3236e-05 267.09Z" fill="#52057B"/>
<path d="M275.346 507.81L275.345 671.116L190.359 724.465L192.94 447.395L275.346 507.81Z" fill="#52057B"/>
<path d="M193 437.166L194 265.534L275 215L275 497L193 437.166Z" fill="#240A2D"/>
<path d="M537 192H592.5L664 520.5L736 192H791L798.5 597H753L748.5 303L680 597H648L580 303L575.5 597H529.5L537 192ZM859.578 209H913.078V265H859.578V209ZM859.578 308H913.078V597H859.578V308ZM970.336 308H1023.84V336.5C1046.84 314.833 1070.34 304 1094.34 304C1110 304 1121.17 309.667 1127.84 321C1134.5 332.333 1137.84 346.333 1137.84 363V597H1084.34V378.5C1084.34 367.5 1082.67 359.333 1079.34 354C1076 348.667 1070 346 1061.34 346C1050.67 346 1038.17 352 1023.84 364V597H970.336V308ZM1193.56 209H1247.06V265H1193.56V209ZM1193.56 308H1247.06V597H1193.56V308ZM1429.58 192H1485.08L1556.58 520.5L1628.58 192H1683.58L1691.08 597H1645.58L1641.08 303L1572.58 597H1540.58L1472.58 303L1468.08 597H1422.08L1429.58 192ZM1800.66 601C1789.66 601 1779.66 597.833 1770.66 591.5C1761.99 585.167 1755.16 576.833 1750.16 566.5C1745.16 556.167 1742.66 545.333 1742.66 534C1742.66 511.333 1747.49 493 1757.16 479C1766.82 464.667 1779.16 453.333 1794.16 445C1809.16 436.667 1829.99 427.167 1856.66 416.5V396C1856.66 377 1854.66 363.667 1850.66 356C1846.99 348 1839.32 344 1827.66 344C1807.32 344 1797.16 357.667 1797.16 385V399.5L1744.16 397.5C1744.82 365.5 1752.16 342 1766.16 327C1780.16 311.667 1801.82 304 1831.16 304C1858.82 304 1878.82 311.667 1891.16 327C1903.82 342 1910.16 364.833 1910.16 395.5V527.5C1910.16 549.167 1911.82 572.333 1915.16 597H1866.16C1862.49 578 1860.16 563.833 1859.16 554.5C1855.16 567.5 1848.16 578.5 1838.16 587.5C1828.49 596.5 1815.99 601 1800.66 601ZM1821.66 555C1828.66 555 1835.49 552.333 1842.16 547C1848.82 541.333 1853.66 536 1856.66 531V449C1842.32 457 1831.16 464 1823.16 470C1815.49 475.667 1808.99 482.333 1803.66 490C1798.66 497.667 1796.16 506.833 1796.16 517.5C1796.16 529.5 1798.32 538.833 1802.66 545.5C1806.99 551.833 1813.32 555 1821.66 555ZM1963.05 308H2016.55V349C2026.55 332.667 2036.71 321.167 2047.05 314.5C2057.71 307.833 2068.88 304.5 2080.55 304.5C2083.55 304.5 2086.38 304.667 2089.05 305V364C2078.38 360 2068.55 358 2059.55 358C2050.88 358 2043.05 360.167 2036.05 364.5C2029.38 368.5 2022.88 375.667 2016.55 386V597H1963.05V308ZM2123.19 191.5H2176.69V433L2254.69 308H2310.69L2242.69 421L2308.69 597H2255.19L2201.19 449L2176.69 486V596.5H2123.19V191.5ZM2416.55 601C2394.21 601 2376.88 596.833 2364.55 588.5C2352.21 579.833 2343.55 567.167 2338.55 550.5C2333.55 533.833 2331.05 512.167 2331.05 485.5V419.5C2331.05 379.5 2337.21 350.333 2349.55 332C2362.21 313.333 2384.55 304 2416.55 304C2439.88 304 2457.38 308.833 2469.05 318.5C2481.05 328.167 2488.88 341.833 2492.55 359.5C2496.55 376.833 2498.55 400.333 2498.55 430V453.5H2384.55V511.5C2384.55 529.167 2387.05 542 2392.05 550C2397.38 557.667 2405.71 561.5 2417.05 561.5C2428.38 561.5 2436.05 557.667 2440.05 550C2444.05 542 2446.05 530 2446.05 514V496.5H2498.05V507.5C2498.05 537.833 2491.55 561 2478.55 577C2465.55 593 2444.88 601 2416.55 601ZM2446.05 424.5V398.5C2446.05 378.833 2444.05 364.833 2440.05 356.5C2436.38 347.833 2428.38 343.5 2416.05 343.5C2407.38 343.5 2400.71 345.5 2396.05 349.5C2391.71 353.5 2388.71 360.167 2387.05 369.5C2385.38 378.5 2384.55 391.667 2384.55 409V424.5H2446.05ZM2624 601C2582.33 601 2561.5 578 2561.5 532V343.5H2531V308H2561.5V223.5H2615V308H2661.5V343.5H2615V528.5C2615 540.167 2616.83 548.333 2620.5 553C2624.16 557.667 2631.16 560 2641.5 560C2648.16 560 2654.66 559.5 2661 558.5V598C2647.66 600 2635.33 601 2624 601Z" fill="#240A2D"/>
</svg>
